M48
; DRILL file {KiCad 5.1.9} date Fri Jan 15 16:17:36 2021
; FORMAT={-:-/ absolute / inch / decimal}
; #@! TF.CreationDate,2021-01-15T16:17:36-05:00
; #@! TF.GenerationSoftware,Kicad,Pcbnew,5.1.9
FMAT,2
INCH
T1C0.0295
T2C0.0315
T3C0.0354
T4C0.0394
T5C0.0433
T6C0.1260
T7C0.1378
%
G90
G05
T1
X-2.1378Y-1.2559
X-2.0878Y-1.3059
X-2.0378Y-1.2559
T2
X-2.0693Y-0.4803
X-1.8071Y-0.8583
X-1.8071Y-1.2583
X-1.6693Y-0.4803
X-1.5591Y-1.1551
X-1.5591Y-1.5551
X-1.3276Y-0.9567
X-1.3276Y-1.0567
X-1.3276Y-1.1567
X-1.3276Y-1.2567
X-1.0276Y-0.9567
X-1.0276Y-1.0567
X-1.0276Y-1.1567
X-1.0276Y-1.2567
X-0.7913Y-1.1535
X-0.7913Y-1.5535
X-0.6697Y-1.5551
X-0.6693Y-1.3189
X-0.2697Y-1.5551
X-0.2693Y-1.3189
T3
X-1.6102Y-0.9606
X-1.5102Y-0.9606
T4
X-0.7874Y-1.0335
X-0.4874Y-0.9335
X-0.2874Y-1.0335
T5
X-1.8504Y-0.1969
X-1.6535Y-0.1969
X-1.5177Y-0.4803
X-1.5177Y-0.5803
X-1.5177Y-0.6803
X-0.6299Y-0.1969
X-0.4331Y-0.1969
T6
X-2.1654Y-0.1378
X-0.1378Y-0.1378
T7
X-0.8618Y-0.5803
T0
M30
